<?xml version="1.0" encoding="UTF-8"?>
<svg version="1.1" xmlns="http://www.w3.org/2000/svg" width="1024" height="1024">
<path d="M0 0 C337.92 0 675.84 0 1024 0 C1024 337.92 1024 675.84 1024 1024 C686.08 1024 348.16 1024 0 1024 C0 686.08 0 348.16 0 0 Z " fill="#F3F2EB" transform="translate(0,0)"/>
<path d="M0 0 C1.84125071 -0.00407351 3.68249897 -0.00941973 5.52374268 -0.01593018 C10.48869241 -0.02951792 15.45345353 -0.02434041 20.41840625 -0.01479292 C25.63685758 -0.00715063 30.8552937 -0.01425465 36.07374573 -0.01895142 C44.83516309 -0.02439622 53.59650437 -0.01725143 62.35791016 -0.00292969 C72.45709887 0.01338923 82.55610577 0.00810863 92.65529007 -0.0084089 C101.3572009 -0.02206632 110.05905732 -0.02392254 118.76097542 -0.0160929 C123.94462278 -0.01143905 129.12818497 -0.01072795 134.31182671 -0.02070236 C139.18835747 -0.02943176 144.06465616 -0.02324211 148.94116211 -0.00601959 C150.7203896 -0.0020862 152.49963696 -0.00313408 154.27885628 -0.00980759 C174.69880238 -0.07927897 192.2306314 3.53663171 207.33032227 18.26318359 C208.01223633 18.96443359 208.69415039 19.66568359 209.39672852 20.38818359 C210.21850586 21.16162109 210.21850586 21.16162109 211.05688477 21.95068359 C214.8591099 25.84416213 217.1985571 30.51901536 219.64672852 35.32568359 C219.98849121 35.99414307 220.33025391 36.66260254 220.68237305 37.35131836 C221.0057666 38.01188232 221.32916016 38.67244629 221.66235352 39.35302734 C221.94884766 39.93689209 222.2353418 40.52075684 222.53051758 41.12231445 C224.83629412 47.15385675 225.69339421 52.87699647 225.67088318 59.30383301 C225.67611986 60.05892009 225.68135654 60.81400718 225.6867519 61.59197569 C225.70164928 64.1002718 225.70245478 66.60836206 225.703125 69.11669922 C225.71075365 70.92441141 225.71918235 72.73212038 225.72834778 74.53982544 C225.75023597 79.43697038 225.75908458 84.3340529 225.76417422 89.23124123 C225.76782593 92.29751441 225.77407036 95.36377145 225.78117561 98.43003845 C225.8056549 109.14688835 225.81871775 119.86368999 225.82226562 130.58056641 C225.82589489 140.53710617 225.85575059 150.49333656 225.89767021 160.44978189 C225.93248595 169.02253209 225.94781605 177.59518036 225.94851166 186.1680007 C225.94930093 191.2769911 225.95787702 196.38566639 225.98650932 201.49458313 C226.01288249 206.30794587 226.01478895 211.1207366 225.99885368 215.93413925 C225.99705412 217.68835077 226.00359284 219.44259664 226.01967239 221.19673538 C226.18647002 240.59548118 221.42646403 256.56438924 207.87329102 271.00146484 C196.37744691 282.08026729 182.03639575 288.72283206 165.99859619 288.65560913 C164.78822823 288.6624058 164.78822823 288.6624058 163.55340838 288.66933978 C160.86993739 288.68192361 158.18667092 288.68036732 155.50317383 288.67871094 C153.57074729 288.68469997 151.63832313 288.69150638 149.7059021 288.69906616 C144.47018703 288.71669574 139.23453739 288.72142028 133.99879551 288.72269773 C130.72350196 288.72412168 127.44822492 288.72839591 124.17293549 288.73369217 C112.73450163 288.7521828 101.29611432 288.76036404 89.85766602 288.75878906 C79.21490752 288.75758812 68.57235198 288.77868372 57.92964482 288.81027639 C48.77607119 288.83647507 39.6225637 288.84715484 30.46895289 288.84587824 C25.00914922 288.84536964 19.54952597 288.85099637 14.08975983 288.87223434 C8.95144683 288.89167709 3.81348525 288.89169997 -1.32484055 288.87720108 C-3.20327903 288.87511933 -5.08173986 288.87977581 -6.96014023 288.891922 C-26.41691387 289.00951662 -41.68737239 284.14073689 -55.87670898 270.23583984 C-66.64768196 258.98649987 -72.75456731 245.29538183 -72.7504425 229.69285583 C-72.75411919 228.9373609 -72.75779588 228.18186597 -72.76158398 227.40347725 C-72.77256172 224.88201493 -72.77645459 222.3605939 -72.78027344 219.83911133 C-72.78654262 218.02682873 -72.79318982 216.2145474 -72.80018616 214.40226746 C-72.82117714 208.45877977 -72.83158479 202.51529198 -72.84155273 196.57177734 C-72.84560232 194.52094065 -72.84971931 192.47010408 -72.85390282 190.41926765 C-72.8729446 180.78118559 -72.88717703 171.14311113 -72.89551479 161.50501388 C-72.90527981 150.40216449 -72.9315845 139.29951485 -72.97201568 128.1967358 C-73.00223899 119.60030276 -73.0169896 111.00392679 -73.0202958 102.40744168 C-73.0226394 97.28011228 -73.03150972 92.15299652 -73.05675697 87.02572441 C-73.08015132 82.19687667 -73.08422551 77.36838152 -73.07399559 72.53949165 C-73.07350285 70.77595975 -73.07974513 69.01240981 -73.09355164 67.24893188 C-73.23286473 48.38573162 -68.84433576 32.90451774 -55.42749023 19.14990234 C-39.36068304 3.43865381 -21.69843127 -0.081285 0 0 Z " fill="#F3F1E9" transform="translate(435.603271484375,295.61181640625)"/>
<path d="M0 0 C1.84125071 -0.00407351 3.68249897 -0.00941973 5.52374268 -0.01593018 C10.48869241 -0.02951792 15.45345353 -0.02434041 20.41840625 -0.01479292 C25.63685758 -0.00715063 30.8552937 -0.01425465 36.07374573 -0.01895142 C44.83516309 -0.02439622 53.59650437 -0.01725143 62.35791016 -0.00292969 C72.45709887 0.01338923 82.55610577 0.00810863 92.65529007 -0.0084089 C101.3572009 -0.02206632 110.05905732 -0.02392254 118.76097542 -0.0160929 C123.94462278 -0.01143905 129.12818497 -0.01072795 134.31182671 -0.02070236 C139.18835747 -0.02943176 144.06465616 -0.02324211 148.94116211 -0.00601959 C150.7203896 -0.0020862 152.49963696 -0.00313408 154.27885628 -0.00980759 C174.69880238 -0.07927897 192.2306314 3.53663171 207.33032227 18.26318359 C208.01223633 18.96443359 208.69415039 19.66568359 209.39672852 20.38818359 C210.21850586 21.16162109 210.21850586 21.16162109 211.05688477 21.95068359 C214.8591099 25.84416213 217.1985571 30.51901536 219.64672852 35.32568359 C219.98849121 35.99414307 220.33025391 36.66260254 220.68237305 37.35131836 C221.0057666 38.01188232 221.32916016 38.67244629 221.66235352 39.35302734 C221.94884766 39.93689209 222.2353418 40.52075684 222.53051758 41.12231445 C224.83629412 47.15385675 225.69339421 52.87699647 225.67088318 59.30383301 C225.67611986 60.05892009 225.68135654 60.81400718 225.6867519 61.59197569 C225.70164928 64.1002718 225.70245478 66.60836206 225.703125 69.11669922 C225.71075365 70.92441141 225.71918235 72.73212038 225.72834778 74.53982544 C225.75023597 79.43697038 225.75908458 84.3340529 225.76417422 89.23124123 C225.76782593 92.29751441 225.77407036 95.36377145 225.78117561 98.43003845 C225.8056549 109.14688835 225.81871775 119.86368999 225.82226562 130.58056641 C225.82589489 140.53710617 225.85575059 150.49333656 225.89767021 160.44978189 C225.93248595 169.02253209 225.94781605 177.59518036 225.94851166 186.1680007 C225.94930093 191.2769911 225.95787702 196.38566639 225.98650932 201.49458313 C226.01288249 206.30794587 226.01478895 211.1207366 225.99885368 215.93413925 C225.99705412 217.68835077 226.00359284 219.44259664 226.01967239 221.19673538 C226.18647002 240.59548118 221.42646403 256.56438924 207.87329102 271.00146484 C196.37744691 282.08026729 182.03639575 288.72283206 165.99859619 288.65560913 C164.78822823 288.6624058 164.78822823 288.6624058 163.55340838 288.66933978 C160.86993739 288.68192361 158.18667092 288.68036732 155.50317383 288.67871094 C153.57074729 288.68469997 151.63832313 288.69150638 149.7059021 288.69906616 C144.47018703 288.71669574 139.23453739 288.72142028 133.99879551 288.72269773 C130.72350196 288.72412168 127.44822492 288.72839591 124.17293549 288.73369217 C112.73450163 288.7521828 101.29611432 288.76036404 89.85766602 288.75878906 C79.21490752 288.75758812 68.57235198 288.77868372 57.92964482 288.81027639 C48.77607119 288.83647507 39.6225637 288.84715484 30.46895289 288.84587824 C25.00914922 288.84536964 19.54952597 288.85099637 14.08975983 288.87223434 C8.95144683 288.89167709 3.81348525 288.89169997 -1.32484055 288.87720108 C-3.20327903 288.87511933 -5.08173986 288.87977581 -6.96014023 288.891922 C-26.41691387 289.00951662 -41.68737239 284.14073689 -55.87670898 270.23583984 C-66.64768196 258.98649987 -72.75456731 245.29538183 -72.7504425 229.69285583 C-72.75411919 228.9373609 -72.75779588 228.18186597 -72.76158398 227.40347725 C-72.77256172 224.88201493 -72.77645459 222.3605939 -72.78027344 219.83911133 C-72.78654262 218.02682873 -72.79318982 216.2145474 -72.80018616 214.40226746 C-72.82117714 208.45877977 -72.83158479 202.51529198 -72.84155273 196.57177734 C-72.84560232 194.52094065 -72.84971931 192.47010408 -72.85390282 190.41926765 C-72.8729446 180.78118559 -72.88717703 171.14311113 -72.89551479 161.50501388 C-72.90527981 150.40216449 -72.9315845 139.29951485 -72.97201568 128.1967358 C-73.00223899 119.60030276 -73.0169896 111.00392679 -73.0202958 102.40744168 C-73.0226394 97.28011228 -73.03150972 92.15299652 -73.05675697 87.02572441 C-73.08015132 82.19687667 -73.08422551 77.36838152 -73.07399559 72.53949165 C-73.07350285 70.77595975 -73.07974513 69.01240981 -73.09355164 67.24893188 C-73.23286473 48.38573162 -68.84433576 32.90451774 -55.42749023 19.14990234 C-39.36068304 3.43865381 -21.69843127 -0.081285 0 0 Z M-53.60327148 28.38818359 C-63.38618426 40.88563433 -65.19748895 53.03906342 -65.10498047 68.42895508 C-65.10876969 70.23374858 -65.11427468 72.03853916 -65.12135315 73.84332275 C-65.13524739 78.71741369 -65.12418006 83.59114922 -65.10764194 88.46522021 C-65.09372634 93.58318488 -65.10025898 98.70113027 -65.10377502 103.81910706 C-65.10647226 112.41258425 -65.09304428 121.00592138 -65.06982422 129.59936523 C-65.04322609 139.51110789 -65.04146656 149.42261636 -65.05321258 159.33438247 C-65.06402159 168.89772161 -65.05777828 178.46097667 -65.0436573 188.02430916 C-65.0379237 192.08102487 -65.03795944 196.13767851 -65.0427227 200.19439507 C-65.04752294 204.97898123 -65.03726557 209.76331359 -65.01576805 214.54785156 C-65.01024097 216.29566149 -65.00969698 218.04349601 -65.01472092 219.79130745 C-65.0602271 237.90503433 -61.97133154 252.51872049 -49.07592773 266.10302734 C-38.40615952 275.96371361 -24.4623449 281.53914552 -9.9969635 281.53535461 C-9.23894501 281.5390313 -8.48092651 281.54270799 -7.69993776 281.54649609 C-5.16388387 281.55749509 -2.62787101 281.56137039 -0.09179688 281.56518555 C1.7285678 281.57145325 3.5489312 281.57810032 5.36929321 281.58509827 C11.34587722 281.6061114 17.32246139 281.61650076 23.29907227 281.62646484 C25.36071854 281.63051397 27.42236469 281.63463094 29.4840107 281.63881493 C39.17495792 281.65786363 48.86589757 281.67209315 58.55685991 281.6804269 C69.72026948 281.6901867 80.8834801 281.71647478 92.04681963 281.75692779 C100.68910761 281.78716321 109.33133883 281.80190295 117.97367865 281.80520791 C123.12844113 281.80755066 128.28299102 281.81640934 133.43769646 281.84166908 C138.29443981 281.86508387 143.15083261 281.86912953 148.00761795 281.8589077 C149.78040425 281.85841541 151.55320859 281.86464419 153.32594109 281.87846375 C170.74103854 282.00651739 188.34582426 278.91422276 201.52563477 266.41943359 C211.84608461 255.21560496 217.51085466 243.18948609 217.53044128 227.90718079 C217.53270684 227.17477604 217.5349724 226.44237129 217.53730661 225.68777245 C217.54361401 223.24455016 217.54281934 220.80138381 217.54199219 218.3581543 C217.54498577 216.60173979 217.54838876 214.84532595 217.5521698 213.08891296 C217.56099516 208.3242153 217.56334734 203.55953561 217.56398559 198.79483056 C217.56469709 195.8147127 217.56683334 192.83459938 217.5694828 189.85448265 C217.57873241 179.44815151 217.5828183 169.04183316 217.58203125 158.63549805 C217.58143103 148.95166969 217.5919729 139.26789714 217.60777491 129.5840829 C217.62087519 121.2577416 217.62621408 112.93141848 217.62557584 104.60506696 C217.62532152 99.63772093 217.62813596 94.67042448 217.63875389 89.70308876 C217.6484764 85.02698404 217.6484857 80.35097587 217.64123726 75.67486763 C217.64019646 73.96533313 217.64252407 72.25579249 217.64859772 70.54626846 C217.71067059 51.8535703 215.17816926 37.57746332 201.70532227 23.53662109 C187.35473001 10.181586 170.11204991 8.08400935 151.39941406 8.11352539 C149.57521354 8.10917326 147.75101485 8.10398845 145.92681885 8.09803772 C140.99073235 8.08468939 136.05472261 8.08406448 131.11862159 8.08660102 C126.98867933 8.08767371 122.85875242 8.08277968 118.72881347 8.0779956 C108.97984175 8.0669145 99.23090856 8.06645494 89.48193359 8.07250977 C79.44641606 8.07854704 69.41103881 8.06624155 59.3755452 8.0449397 C50.73999444 8.02728782 42.10448818 8.02132805 33.46892005 8.02457744 C28.31992101 8.02638495 23.17102202 8.02380755 18.02203941 8.0098629 C13.17676943 7.99723095 8.33171707 7.99927918 3.4864502 8.01227379 C1.71605669 8.01462758 -0.05435239 8.0119482 -1.82472801 8.00365067 C-22.67166229 7.91304814 -39.16943372 12.74282254 -53.60327148 28.38818359 Z " fill="#4A4D4D" transform="translate(435.603271484375,295.61181640625)"/>
<path d="M0 0 C2.4375 1.25 2.4375 1.25 4.0625 4.5 C8.24985939 17.76781291 10.28264934 31.71743654 12.703125 45.390625 C12.92693848 46.65253662 13.15075195 47.91444824 13.38134766 49.21459961 C13.83134052 51.7566561 14.27897634 54.29913108 14.72412109 56.84204102 C15.03470459 58.60052368 15.03470459 58.60052368 15.3515625 60.39453125 C15.5367041 61.45003174 15.7218457 62.50553223 15.91259766 63.59301758 C16.39690505 66.33882765 16.39690505 66.33882765 17.4375 69.25 C17.82421875 68.09242188 18.2109375 66.93484375 18.609375 65.7421875 C19.13496162 64.20296954 19.66102886 62.66391564 20.1875 61.125 C20.44015625 60.36445313 20.6928125 59.60390625 20.953125 58.8203125 C22.68596133 53.79508713 24.60348165 49.08401835 28.4375 45.25 C33.54710758 44.47056834 33.54710758 44.47056834 36.4375 45.25 C37.7734375 47 37.7734375 47 39 49.1875 C40.31599887 51.50809673 40.31599887 51.50809673 42.4375 53.25 C46.45277167 53.9729231 49.99422358 54.06392289 54.07421875 54.01953125 C57.4375 54.25 57.4375 54.25 59.40625 55.6015625 C60.4375 57.25 60.4375 57.25 60.25 59.8125 C59.4375 62.25 59.4375 62.25 57.4375 64.25 C54.35657325 64.74897575 51.24178218 64.66664421 48.125 64.6875 C47.26970703 64.72037109 46.41441406 64.75324219 45.53320312 64.78710938 C40.97220183 64.82597151 39.04981965 64.72368124 35.33203125 61.84765625 C33.4375 59.25 33.4375 59.25 33.4375 57.25 C32.7775 57.25 32.1175 57.25 31.4375 57.25 C31.0971875 58.9825 31.0971875 58.9825 30.75 60.75 C26.00553849 81.98230649 26.00553849 81.98230649 20.4375 90.25 C17.1875 91.25 17.1875 91.25 14.4375 91.25 C11.21363451 87.65002377 9.79515577 84.9233332 8.83984375 80.19921875 C8.59717773 79.03350342 8.35451172 77.86778809 8.10449219 76.66674805 C7.86375977 75.43609619 7.62302734 74.20544434 7.375 72.9375 C6.98876465 71.04414917 6.98876465 71.04414917 6.59472656 69.11254883 C5.86110421 65.4944145 5.1468216 61.87296405 4.4375 58.25 C4.11109675 56.62491565 3.78434686 54.99990083 3.45703125 53.375 C1.93496719 45.6728231 0.80220926 37.95591049 -0.1328125 30.1640625 C-0.39731475 27.32040845 -0.39731475 27.32040845 -1.5625 25.25 C-2.02643528 27.74906472 -2.48358623 30.24910972 -2.9375 32.75 C-3.12699219 33.76513672 -3.12699219 33.76513672 -3.3203125 34.80078125 C-4.2062145 39.71753733 -4.84777398 44.63021543 -5.41796875 49.59375 C-6.46309588 58.38520207 -8.16338119 67.01666194 -9.96655273 75.68017578 C-10.50481746 78.27320758 -11.02928443 80.86878533 -11.55273438 83.46484375 C-11.89762293 85.14339674 -12.24329754 86.82178846 -12.58984375 88.5 C-12.74307602 89.26159424 -12.89630829 90.02318848 -13.05418396 90.80786133 C-15.70544743 103.39294743 -15.70544743 103.39294743 -18.5625 106.25 C-22.96409204 106.71332548 -22.96409204 106.71332548 -25.13720703 105.03076172 C-26.860823 102.8772751 -27.34757841 101.18663462 -27.9921875 98.5078125 C-28.2279248 97.53706787 -28.46366211 96.56632324 -28.70654297 95.56616211 C-28.94775879 94.51307861 -29.18897461 93.45999512 -29.4375 92.375 C-29.69289551 91.28904541 -29.94829102 90.20309082 -30.21142578 89.08422852 C-33.22497273 75.90952372 -35.42039782 62.58997727 -37.5625 49.25 C-39.0906608 53.5839303 -40.20236591 57.87562458 -41.1484375 62.37109375 C-41.44220153 63.73253133 -41.73648858 65.09385614 -42.03125 66.45507812 C-42.4862091 68.57127526 -42.93760412 70.6879988 -43.37988281 72.80688477 C-46.43046097 87.36138931 -46.43046097 87.36138931 -50.5625 93.25 C-56.03601214 93.61490081 -56.03601214 93.61490081 -58.10888672 92.17822266 C-60.16905118 89.44540792 -61.02687308 86.44353052 -62.0078125 83.2109375 C-62.22315643 82.52947662 -62.43850037 81.84801575 -62.66036987 81.14590454 C-63.34486805 78.97491108 -64.01674243 76.80027402 -64.6875 74.625 C-65.3675335 72.44332584 -66.05017722 70.26251644 -66.73605347 68.08267212 C-67.16175793 66.72725949 -67.58367672 65.37065109 -68.00149536 64.01278687 C-68.81319479 60.87633635 -68.81319479 60.87633635 -70.5625 58.25 C-70.96082031 59.02085937 -71.35914063 59.79171875 -71.76953125 60.5859375 C-72.29933594 61.58882813 -72.82914062 62.59171875 -73.375 63.625 C-73.89707031 64.62273437 -74.41914063 65.62046875 -74.95703125 66.6484375 C-76.5625 69.25 -76.5625 69.25 -79.5625 71.25 C-82.8125 71.75 -82.8125 71.75 -86.5625 71.25 C-88.09741211 69.9128418 -88.09741211 69.9128418 -89.65234375 68.26171875 C-94.06550414 64.29914427 -98.15688738 64.45853432 -103.875 64.5625 C-105.6627425 64.5714069 -107.45060057 64.56811149 -109.23828125 64.55078125 C-110.4125769 64.56878784 -110.4125769 64.56878784 -111.6105957 64.5871582 C-112.25472412 64.475896 -112.89885254 64.36463379 -113.5625 64.25 C-115.5625 61.25 -115.5625 61.25 -115.3125 58.125 C-115.065 57.17625 -114.8175 56.2275 -114.5625 55.25 C-110.71252679 53.3250134 -105.9849112 54.02162048 -101.75 54 C-100.75162109 53.979375 -99.75324219 53.95875 -98.72460938 53.9375 C-89.32501836 53.88740225 -89.32501836 53.88740225 -85.5625 57.25 C-85.5625 57.91 -85.5625 58.57 -85.5625 59.25 C-84.5725 59.25 -83.5825 59.25 -82.5625 59.25 C-82.335625 58.610625 -82.10875 57.97125 -81.875 57.3125 C-76.3625 44.45 -76.3625 44.45 -71.5625 41.25 C-68.625 40.875 -68.625 40.875 -65.5625 42.25 C-59.68177041 49.91818539 -57.4488544 61.14459334 -54.5625 70.25 C-52.86427127 66.34821594 -51.86623518 62.52474994 -50.9765625 58.3671875 C-50.68246435 57.0207956 -50.38818763 55.6744427 -50.09375 54.328125 C-49.64138569 52.23594007 -49.19140016 50.14329547 -48.74511719 48.04980469 C-43.94719958 25.63469958 -43.94719958 25.63469958 -40.5625 22.25 C-37.55618587 21.84374133 -36.06925962 21.89939306 -33.546875 23.64453125 C-30.60044864 27.51316585 -30.04113036 31.53465831 -29.125 36.25 C-28.92108643 37.24008057 -28.71717285 38.23016113 -28.50708008 39.25024414 C-25.95152356 51.87007169 -23.74677735 64.56152585 -21.5625 77.25 C-19.64635671 75.33385671 -19.80242693 72.00574855 -19.40625 69.44140625 C-19.24545959 68.4185276 -19.24545959 68.4185276 -19.0814209 67.37498474 C-18.73790056 65.1880751 -18.39968943 63.00039412 -18.0625 60.8125 C-17.72505401 58.6282212 -17.38639319 56.44417 -17.0435791 54.26072693 C-16.73212772 52.27662889 -16.42552501 50.29177157 -16.11914062 48.30688477 C-15.5625 45.25 -15.5625 45.25 -14.5625 43.25 C-14.40539112 41.81565414 -14.28645279 40.37702756 -14.1875 38.9375 C-13.59319859 32.54647403 -12.09255976 26.47179167 -10.5625 20.25 C-10.245272 18.83510992 -9.93025479 17.41972277 -9.6171875 16.00390625 C-9.28695756 14.5649895 -8.95623532 13.12618564 -8.625 11.6875 C-8.47957764 11.00864746 -8.33415527 10.32979492 -8.18432617 9.63037109 C-7.0246635 4.74028638 -5.45476608 0.5321723 0 0 Z " fill="#CA9280" transform="translate(539.5625,386.75)"/>
<path d="M0 0 C3.96509139 -0.09990539 7.92968163 -0.17194834 11.89575195 -0.21972656 C13.89756051 -0.24940781 15.89901919 -0.30027058 17.90039062 -0.3515625 C26.26358937 -0.43582647 33.44502 -0.33867744 39.76150513 5.67785645 C43.99987392 10.44861191 46.92946627 15.15302743 49.55078125 20.953125 C49.93566208 21.77576843 50.32054291 22.59841187 50.71708679 23.44598389 C51.92817336 26.04168245 53.1206653 28.64541458 54.3125 31.25 C55.12961776 33.01099332 55.9479673 34.77141563 56.76757812 36.53125 C58.56431016 40.39233053 60.34916017 44.25865092 62.12324524 48.13018799 C62.99415571 50.04725218 62.99415571 50.04725218 64.12785339 52.00604248 C65.57054033 55.30440591 64.61655579 58.57007166 64 62 C63.87737793 62.70769531 63.75475586 63.41539062 63.62841797 64.14453125 C63.24870125 66.26667728 62.84709499 68.3834326 62.4375 70.5 C62.29892578 71.22703125 62.16035156 71.9540625 62.01757812 72.703125 C61.68063335 74.46918037 61.34064317 76.23465426 61 78 C60.34 78 59.68 78 59 78 C58.35309078 76.3962669 57.70751236 74.79199694 57.0625 73.1875 C56.70285156 72.29417969 56.34320313 71.40085937 55.97265625 70.48046875 C55.26386514 68.6729091 54.6139753 66.84192591 54 65 C49.02784476 62.13724395 43.5331153 62.33918731 38.125 63.75 C35.65792423 65.20122104 34.97296654 66.34645489 34 69 C31.66920999 66.86565424 30.26555908 64.88333316 28.89038086 62.04541016 C28.50244858 61.25252594 28.1145163 60.45964172 27.71482849 59.64273071 C27.30233353 58.7835202 26.88983856 57.92430969 26.46484375 57.0390625 C26.02668839 56.13868256 25.58853302 55.23830261 25.13710022 54.31063843 C23.73140736 51.41821104 22.33443426 48.5216659 20.9375 45.625 C20.02463971 43.74452401 19.11123338 41.86431298 18.19726562 39.984375 C15.91633917 35.28712533 13.64764365 30.58410804 11.38494873 25.87805176 C10.43994439 23.9142452 9.49312926 21.95130925 8.54473877 19.98913574 C7.13147466 17.0648922 5.72332469 14.13823835 4.31640625 11.2109375 C3.88174545 10.31363922 3.44708466 9.41634094 2.99925232 8.49185181 C2.60448196 7.66744598 2.20971161 6.84304016 1.80297852 5.99365234 C1.45364761 5.2683432 1.10431671 4.54303406 0.74440002 3.79574585 C0 2 0 2 0 0 Z " fill="#464A4B" transform="translate(425,361)"/>
<path d="M0 0 C0.98608749 0.00636726 0.98608749 0.00636726 1.99209595 0.01286316 C4.07068641 0.02951898 6.14827024 0.06714255 8.2265625 0.10546875 C9.64451714 0.1205327 11.06248714 0.1342181 12.48046875 0.14648438 C15.9378214 0.17937837 19.39459353 0.2310671 22.8515625 0.29296875 C22.129508 3.89514645 20.68549583 6.92523552 19.078125 10.21875 C18.50570068 11.39719482 17.93327637 12.57563965 17.34350586 13.78979492 C16.72122554 15.0617029 16.09891032 16.3335938 15.4765625 17.60546875 C14.5203326 19.57009327 13.56541556 21.53535255 12.61051941 23.50062561 C11.96481948 24.82924345 11.31866836 26.15764211 10.67207336 27.48582458 C7.23899098 34.54025464 3.86223499 41.62134053 0.49267578 48.70629883 C-0.71448585 51.23838816 -1.93070386 53.76594995 -3.1484375 56.29296875 C-3.58575195 57.21561523 -4.02306641 58.13826172 -4.47363281 59.08886719 C-5.1267041 60.44093262 -5.1267041 60.44093262 -5.79296875 61.8203125 C-6.18202393 62.63363037 -6.5710791 63.44694824 -6.97192383 64.28491211 C-8.54057965 66.96227135 -10.38071949 67.98194443 -13.1484375 69.29296875 C-15.23525819 71.67790668 -16.13695052 73.2585078 -17.1484375 76.29296875 C-17.8084375 76.29296875 -18.4684375 76.29296875 -19.1484375 76.29296875 C-19.24866211 75.61008789 -19.34888672 74.92720703 -19.45214844 74.22363281 C-22.45859475 50.47242349 -22.45859475 50.47242349 -28.1484375 27.29296875 C-27.14314694 24.02786132 -25.5582141 20.9965754 -24.0859375 17.91796875 C-23.70244141 17.0671875 -23.31894531 16.21640625 -22.92382812 15.33984375 C-18.28379872 5.52469094 -11.27397263 -0.14453811 0 0 Z " fill="#464B4C" transform="translate(576.1484375,360.70703125)"/>
<path d="M0 0 C6.496875 -0.12375 6.496875 -0.12375 13.125 -0.25 C15.15744873 -0.30462402 15.15744873 -0.30462402 17.23095703 -0.36035156 C25.36544125 -0.43550251 29.03852391 0.17057312 34.875 5.8125 C36.5542101 9.07763075 36.43721578 11.37735495 36 15 C34.50254139 17.60847629 33.12971098 19.87028902 31 22 C31.969375 22.78375 32.93875 23.5675 33.9375 24.375 C35.83962346 25.91288705 36.89629957 26.79259913 38 29 C38.34741553 34.29808682 38.53527987 37.75766415 35 42 C30.55231014 45.50669235 27.71129346 46.49046537 22.0703125 46.390625 C20.90773926 46.38063477 19.74516602 46.37064453 18.54736328 46.36035156 C17.0879834 46.32393555 15.62860352 46.28751953 14.125 46.25 C9.46375 46.1675 4.8025 46.085 0 46 C0 30.82 0 15.64 0 0 Z " fill="#4D4E4F" transform="translate(431,638)"/>
<path d="M0 0 C2.39719578 4.42283564 3.20413239 8.91696235 4.1875 13.8125 C4.37763672 14.68970703 4.56777344 15.56691406 4.76367188 16.47070312 C6.86298132 26.82781283 4.22797331 33.21011203 -0.5625 42.375 C-1.66086506 44.51198847 -2.75720869 46.65001709 -3.8515625 48.7890625 C-4.38942383 49.83868164 -4.92728516 50.88830078 -5.48144531 51.96972656 C-6.84685123 54.69439188 -8.14383508 57.43389619 -9.3984375 60.2109375 C-9.7483374 60.98518066 -10.0982373 61.75942383 -10.45874023 62.55712891 C-11.0911576 63.97403406 -11.71379161 65.39536488 -12.32446289 66.82177734 C-14.53644873 71.74610161 -17.17792191 74.58896095 -22 77 C-23.953125 77.2734375 -23.953125 77.2734375 -26.25 77.375 C-27.37148438 77.44847656 -27.37148438 77.44847656 -28.515625 77.5234375 C-32.14026536 76.75975541 -34.46906408 74.58650064 -37 72 C-38.89038086 68.90966797 -38.89038086 68.90966797 -40.46484375 65.4921875 C-40.74727432 64.884888 -41.0297049 64.2775885 -41.32069397 63.65188599 C-41.90833864 62.37949979 -42.48863446 61.10369543 -43.06176758 59.82470703 C-43.94211996 57.86471425 -44.84891796 55.91863592 -45.75976562 53.97265625 C-50.1403268 44.4209804 -50.1403268 44.4209804 -49 41 C-48.360625 40.87625 -47.72125 40.7525 -47.0625 40.625 C-46.381875 40.41875 -45.70125 40.2125 -45 40 C-43.83486387 37.80067065 -43.83486387 37.80067065 -43 35 C-42.505 33.96875 -42.01 32.9375 -41.5 31.875 C-39.43087286 27.13806427 -38.78053236 22.07805169 -38 17 C-37.34 17 -36.68 17 -36 17 C-35.87471924 17.77601563 -35.74943848 18.55203125 -35.62036133 19.3515625 C-35.03609281 22.90433907 -34.4245548 26.4519092 -33.8125 30 C-33.51762695 31.83111328 -33.51762695 31.83111328 -33.21679688 33.69921875 C-32.00748537 40.58299191 -30.74008745 46.65156389 -26 52 C-22.51195905 54.32536063 -21.09859246 54.33457898 -17 54 C-13.752953 53.14048756 -12.98493194 51.97828515 -11.04296875 49.1796875 C-8.18921681 44.0327891 -7.43553841 38.42538779 -6.4375 32.6875 C-6.12280762 30.9715564 -6.12280762 30.9715564 -5.80175781 29.22094727 C-4.40802903 21.55382833 -3.08780644 13.87067187 -1.90014648 6.16870117 C-1.10356702 1.10356702 -1.10356702 1.10356702 0 0 Z " fill="#484C4E" transform="translate(538,444)"/>
<path d="M0 0 C4.125 -0.0825 8.25 -0.165 12.5 -0.25 C13.78455078 -0.28641602 15.06910156 -0.32283203 16.39257812 -0.36035156 C23.42375765 -0.42816941 28.08579863 0.08742103 34 4 C36.75580816 7.1590129 37.89419892 10.2726176 38.5 14.4375 C37.70832928 20.07815387 35.97246766 24.4971675 31.375 28 C29 29 29 29 27 29 C27.36351562 29.47945068 27.72703125 29.95890137 28.1015625 30.45288086 C29.73684931 32.61256012 31.36846695 34.77498378 33 36.9375 C33.57234375 37.69224609 34.1446875 38.44699219 34.734375 39.22460938 C35.27578125 39.94326172 35.8171875 40.66191406 36.375 41.40234375 C36.87773438 42.06741943 37.38046875 42.73249512 37.8984375 43.41772461 C39 45 39 45 39 46 C35.35977871 46.97588911 32.61493652 47.15287165 29 46 C24.78765687 42.11559767 21.79047652 36.95161153 19 32 C19 31.34 19 30.68 19 30 C15.04 30 11.08 30 7 30 C7 35.28 7 40.56 7 46 C4.69 46 2.38 46 0 46 C0 30.82 0 15.64 0 0 Z " fill="#4C4E4E" transform="translate(489,638)"/>
<path d="M0 0 C1.23556641 0.01740234 1.23556641 0.01740234 2.49609375 0.03515625 C3.32238281 0.04417969 4.14867187 0.05320312 5 0.0625 C5.63808594 0.07410156 6.27617188 0.08570313 6.93359375 0.09765625 C7.46932007 1.29757202 7.46932007 1.29757202 8.01586914 2.52172852 C9.67466479 6.23511107 11.33508937 9.94776131 12.99609375 13.66015625 C13.44086563 14.65482407 13.44086563 14.65482407 13.8946228 15.66958618 C17.78786619 24.37266777 21.72786303 33.04748024 25.859375 41.640625 C26.93359375 44.09765625 26.93359375 44.09765625 26.93359375 46.09765625 C23.96359375 46.09765625 20.99359375 46.09765625 17.93359375 46.09765625 C14.93359375 39.47265625 14.93359375 39.47265625 14.93359375 36.09765625 C2.55859375 36.59265625 2.55859375 36.59265625 -10.06640625 37.09765625 C-11.38640625 40.06765625 -12.70640625 43.03765625 -14.06640625 46.09765625 C-16.70640625 46.09765625 -19.34640625 46.09765625 -22.06640625 46.09765625 C-20.14960264 40.01879402 -17.91889495 34.1914932 -15.30859375 28.37890625 C-14.96007355 27.59495483 -14.61155334 26.81100342 -14.25247192 26.0032959 C-13.52333578 24.36556595 -12.79218553 22.72873131 -12.05908203 21.09277344 C-10.93277688 18.5783919 -9.81359158 16.06092871 -8.6953125 13.54296875 C-7.983485 11.94643079 -7.27126002 10.35006997 -6.55859375 8.75390625 C-6.05548172 7.62281433 -6.05548172 7.62281433 -5.54220581 6.46887207 C-2.69453743 0.12734109 -2.69453743 0.12734109 0 0 Z " fill="#4E5050" transform="translate(563.06640625,637.90234375)"/>
<path d="M0 0 C11.55 0 23.1 0 35 0 C35 2.31 35 4.62 35 7 C26.09 7 17.18 7 8 7 C8 10.96 8 14.92 8 19 C15.92 19 23.84 19 32 19 C32 21.31 32 23.62 32 26 C24.08 26 16.16 26 8 26 C8 30.29 8 34.58 8 39 C16.91 39 25.82 39 35 39 C35 41.31 35 43.62 35 46 C23.45 46 11.9 46 0 46 C0 30.82 0 15.64 0 0 Z " fill="#505353" transform="translate(652,638)"/>
<path d="M0 0 C2.97 0 5.94 0 9 0 C13.62 11.22 18.24 22.44 23 34 C25.08099306 30.87851041 26.3640176 27.90384891 27.78515625 24.43359375 C28.17688271 23.48154808 28.17688271 23.48154808 28.57652283 22.51026917 C29.40825561 20.48725852 30.23553724 18.46246463 31.0625 16.4375 C31.89389817 14.40933048 32.72620816 12.38153922 33.55918884 10.35401917 C34.31332708 8.51720736 35.06504667 6.67940309 35.81665039 4.84155273 C36.49724992 3.20724327 37.20826985 1.5834603 38 0 C40.64 0 43.28 0 46 0 C45.31359123 4.84322837 43.42237462 9.00127522 41.47265625 13.44140625 C41.12367783 14.24609848 40.7746994 15.05079071 40.41514587 15.87986755 C39.30216904 18.44276155 38.18229923 21.00258072 37.0625 23.5625 C36.312726 25.28822685 35.56337247 27.01413645 34.81445312 28.74023438 C34.09672701 30.39078718 33.37864019 32.04118319 32.66015625 33.69140625 C32.32363541 34.46440567 31.98711456 35.23740509 31.64039612 36.03382874 C31.32344284 36.75815598 31.00648956 37.48248322 30.67993164 38.22875977 C30.40315079 38.86209732 30.12636993 39.49543488 29.84120178 40.14796448 C28.9431631 42.1251352 27.98234962 44.06352101 27 46 C24.36 46 21.72 46 19 46 C18.56655273 44.98687744 18.13310547 43.97375488 17.68652344 42.92993164 C16.06199118 39.13327486 14.43663153 35.33697275 12.81103516 31.54077148 C12.11061775 29.90479884 11.41041798 28.26873301 10.71044922 26.63256836 C9.69817866 24.26651229 8.68515951 21.90077824 7.671875 19.53515625 C7.34682983 18.77546539 7.02178467 18.01577454 6.68688965 17.23306274 C5.00153115 13.30238121 3.28503893 9.38989663 1.515625 5.49609375 C0 2 0 2 0 0 Z " fill="#4C4E4D" transform="translate(336,638)"/>
<path d="M0 0 C12.54 0 25.08 0 38 0 C38 2.31 38 4.62 38 7 C32.72 7 27.44 7 22 7 C22 19.87 22 32.74 22 46 C19.69 46 17.38 46 15 46 C15 33.13 15 20.26 15 7 C10.05 7 5.1 7 0 7 C0 4.69 0 2.38 0 0 Z " fill="#494B4B" transform="translate(597,638)"/>
<path d="M0 0 C2.701875 -0.061875 5.40375 -0.12375 8.1875 -0.1875 C9.02949951 -0.21481201 9.87149902 -0.24212402 10.73901367 -0.27026367 C15.31952096 -0.32089807 18.28298447 0.01917007 22 3 C23.42662219 5.85324437 23.31033868 7.83454549 23 11 C20.84909549 14.33761045 19.79587201 15.73470933 16 17 C13.25917841 17.07056698 10.55153023 17.09336154 7.8125 17.0625 C5.234375 17.041875 2.65625 17.02125 0 17 C0 11.39 0 5.78 0 0 Z " fill="#EFEEE7" transform="translate(496,645)"/>
<path d="M0 0 C2.31 0 4.62 0 7 0 C7 15.18 7 30.36 7 46 C4.69 46 2.38 46 0 46 C0 30.82 0 15.64 0 0 Z " fill="#4B4C4D" transform="translate(400,638)"/>
<path d="M0 0 C3.08386104 -0.08099635 6.16559211 -0.14049524 9.25 -0.1875 C10.12269531 -0.21263672 10.99539063 -0.23777344 11.89453125 -0.26367188 C18.33134545 -0.33737585 18.33134545 -0.33737585 21.5703125 1.296875 C23 3 23 3 23.625 6.4375 C23 10 23 10 20.515625 12.20703125 C16.12150394 14.44803299 12.95874401 14.46301245 8.125 14.25 C6.949375 14.22292969 6.949375 14.22292969 5.75 14.1953125 C3.83279811 14.14855148 1.91623285 14.07682003 0 14 C0 9.38 0 4.76 0 0 Z " fill="#EAE9E0" transform="translate(438,664)"/>
<path d="M0 0 C2.75059381 -0.08107646 5.49879021 -0.14052813 8.25 -0.1875 C9.02730469 -0.21263672 9.80460937 -0.23777344 10.60546875 -0.26367188 C14.09520419 -0.30841207 16.38576957 -0.32332937 19.515625 1.32421875 C21 3 21 3 21.5 6 C21 9 21 9 19.515625 10.67578125 C15.79102968 12.63639897 12.38790425 12.32131282 8.25 12.1875 C7.45722656 12.17396484 6.66445313 12.16042969 5.84765625 12.14648438 C3.89814436 12.11125223 1.94898374 12.05744821 0 12 C0 8.04 0 4.08 0 0 Z " fill="#F3F2E9" transform="translate(438,645)"/>
<path d="M0 0 C3.34897876 0.05349806 4.79066035 0.33283017 7.875 1.875 C9.75 4.3125 9.75 4.3125 9.75 7.9375 C8.75 11.3125 8.75 11.3125 5.75 13.3125 C3.70703125 13.5078125 3.70703125 13.5078125 1.5625 13.4375 C-0.3246875 13.375625 -0.3246875 13.375625 -2.25 13.3125 C-2.25 15.2925 -2.25 17.2725 -2.25 19.3125 C-3.24 19.3125 -4.23 19.3125 -5.25 19.3125 C-5.27683987 16.33327407 -5.29676037 13.35428705 -5.3125 10.375 C-5.32087891 9.52486328 -5.32925781 8.67472656 -5.33789062 7.79882812 C-5.34111328 6.98994141 -5.34433594 6.18105469 -5.34765625 5.34765625 C-5.35289307 4.5987915 -5.35812988 3.84992676 -5.36352539 3.07836914 C-5.14034032 -0.39323858 -3.00225106 0.09444167 0 0 Z " fill="#6A6965" transform="translate(615.25,708.6875)"/>
<path d="M0 0 C1.5675 -0.061875 3.135 -0.12375 4.75 -0.1875 C6.07257812 -0.23970703 6.07257812 -0.23970703 7.421875 -0.29296875 C10.51205282 0.05818782 11.81735287 0.80731771 14 3 C14.42751128 6.42009021 14.60318593 8.83132725 13 11.9375 C9.73357754 13.67278693 6.65648548 13.17982715 3 13 C3 14.98 3 16.96 3 19 C2.01 19 1.02 19 0 19 C0 12.73 0 6.46 0 0 Z " fill="#686865" transform="translate(588,709)"/>
<path d="M0 0 C0.66 0 1.32 0 2 0 C3.33934716 2.95564708 4.67044247 5.9149378 6 8.875 C6.3815625 9.71675781 6.763125 10.55851563 7.15625 11.42578125 C7.5171875 12.23144531 7.878125 13.03710938 8.25 13.8671875 C8.58515625 14.61081543 8.9203125 15.35444336 9.265625 16.12060547 C10 18 10 18 10 20 C4.39 20 -1.22 20 -7 20 C-6.33533318 16.67666588 -5.82159397 14.24432568 -4.58984375 11.23046875 C-4.32236328 10.56982422 -4.05488281 9.90917969 -3.77929688 9.22851562 C-3.50150391 8.55498047 -3.22371094 7.88144531 -2.9375 7.1875 C-2.51500977 6.14819336 -2.51500977 6.14819336 -2.08398438 5.08789062 C-1.39325027 3.39032376 -0.69716272 1.69493688 0 0 Z " fill="#E9E7DF" transform="translate(564,647)"/>
<path d="M0 0 C4.7058812 1.1764703 5.39507754 2.30351876 8.25 6.0625 C8.95640625 6.98160156 9.6628125 7.90070312 10.390625 8.84765625 C10.92171875 9.55792969 11.4528125 10.26820313 12 11 C12.33 7.37 12.66 3.74 13 0 C13.99 0 14.98 0 16 0 C16 5.94 16 11.88 16 18 C11.87361495 15.93680748 10.49885745 14.44851469 7.75 10.875 C6.69039063 9.50988281 6.69039063 9.50988281 5.609375 8.1171875 C5.07828125 7.41851563 4.5471875 6.71984375 4 6 C3.67 9.96 3.34 13.92 3 18 C2.01 18 1.02 18 0 18 C0 12.06 0 6.12 0 0 Z " fill="#656460" transform="translate(502,710)"/>
<path d="M0 0 C0.99 0 1.98 0 3 0 C4.17374173 2.43431639 5.33915763 4.87204182 6.5 7.3125 C6.83386719 8.00279297 7.16773438 8.69308594 7.51171875 9.40429688 C10 14.66015625 10 14.66015625 10 18 C9.01 17.67 8.02 17.34 7 17 C6.67 16.34 6.34 15.68 6 15 C3.64400765 14.53248212 3.64400765 14.53248212 0.9375 14.375 C0.01839844 14.30023437 -0.90070312 14.22546875 -1.84765625 14.1484375 C-2.55792969 14.09945312 -3.26820313 14.05046875 -4 14 C-4.33 15.32 -4.66 16.64 -5 18 C-5.99 17.67 -6.98 17.34 -8 17 C-6.85700498 14.35290709 -5.71075628 11.70730948 -4.5625 9.0625 C-4.23701172 8.30775391 -3.91152344 7.55300781 -3.57617188 6.77539062 C-1.11328125 1.11328125 -1.11328125 1.11328125 0 0 Z " fill="#5E5F5B" transform="translate(570,709)"/>
<path d="M0 0 C0.99 0.66 1.98 1.32 3 2 C3 2.66 3 3.32 3 4 C2.30132813 3.96519531 1.60265625 3.93039062 0.8828125 3.89453125 C-0.02726563 3.86746094 -0.93734375 3.84039063 -1.875 3.8125 C-2.77992188 3.77769531 -3.68484375 3.74289062 -4.6171875 3.70703125 C-5.40351562 3.80371094 -6.18984375 3.90039062 -7 4 C-9.38798682 6.90585687 -9.38798682 6.90585687 -8.6875 10.625 C-8.35886877 13.82504312 -8.35886877 13.82504312 -7 15 C-4.32941149 15.14115161 -1.67567762 15.04247107 1 15 C1.33 13.68 1.66 12.36 2 11 C0.35 11 -1.3 11 -3 11 C-3 10.34 -3 9.68 -3 9 C-0.69 9 1.62 9 4 9 C4 11.64 4 14.28 4 17 C0.33755697 19.34396354 -2.72394153 19.52512999 -7 19 C-10.58311824 16.42950213 -11.78702567 14.74541015 -13 10.5 C-13 6.5573648 -12.49535546 5.0116359 -10 2 C-6.79074849 -0.32394075 -3.88423885 -0.33057352 0 0 Z " fill="#5E5D5B" transform="translate(539,709)"/>
<path d="M0 0 C2.79828356 0.38597015 3.8205884 0.80136573 5.75 2.9375 C7 5 7 5 7 7 C7.66 7 8.32 7 9 7 C9.28875 6.401875 9.5775 5.80375 9.875 5.1875 C11 3 11 3 13 0 C13.99 0 14.98 0 16 0 C14.94496547 2.27238207 13.93701762 4.07464578 12.3125 6 C10.80988289 7.87162028 10.80988289 7.87162028 11.0625 9.9375 C12.29625532 12.6517617 14.12199141 14.69792496 16 17 C16 17.66 16 18.32 16 19 C15.01 19 14.02 19 13 19 C11.63823419 17.01924973 10.30406884 15.01920337 9 13 C8.34 13 7.68 13 7 13 C6.0409375 14.485 6.0409375 14.485 5.0625 16 C4.381875 16.99 3.70125 17.98 3 19 C2.01 19 1.02 19 0 19 C0.99071348 16.25648576 1.81506524 14.21135401 3.75 12 C4.1625 11.34 4.575 10.68 5 10 C4.12527973 6.41364689 2.61724158 4.49827606 0 2 C0 1.34 0 0.68 0 0 Z " fill="#5A5856" transform="translate(445,709)"/>
<path d="M0 0 C4.29 0 8.58 0 13 0 C13 0.66 13 1.32 13 2 C9.37 2 5.74 2 2 2 C2 3.65 2 5.3 2 7 C5.3 7 8.6 7 12 7 C12 7.99 12 8.98 12 10 C8.7 10 5.4 10 2 10 C2 11.65 2 13.3 2 15 C5.63 15 9.26 15 13 15 C13 15.66 13 16.32 13 17 C8.71 17 4.42 17 0 17 C0 11.39 0 5.78 0 0 Z " fill="#5F5F5B" transform="translate(425,710)"/>
<path d="M0 0 C4.95 0 9.9 0 15 0 C15 0.99 15 1.98 15 3 C13.02 3 11.04 3 9 3 C9 8.28 9 13.56 9 19 C8.01 18.67 7.02 18.34 6 18 C6 13.05 6 8.1 6 3 C4.02 3 2.04 3 0 3 C0 2.01 0 1.02 0 0 Z " fill="#72736F" transform="translate(467,709)"/>
<path d="M0 0 C4.95 0 9.9 0 15 0 C15 0.66 15 1.32 15 2 C13.02 2 11.04 2 9 2 C9 7.28 9 12.56 9 18 C8.01 18 7.02 18 6 18 C6 12.72 6 7.44 6 2 C4.02 2 2.04 2 0 2 C0 1.34 0 0.68 0 0 Z " fill="#62615F" transform="translate(402,710)"/>
<path d="M0 0 C0.99 0 1.98 0 3 0 C3 5.94 3 11.88 3 18 C-0.75511724 16.12244138 -1.88767141 15.37972575 -4 12 C-4 11.34 -4 10.68 -4 10 C-3.01 10.33 -2.02 10.66 -1 11 C-0.67 7.37 -0.34 3.74 0 0 Z " fill="#5E5E5A" transform="translate(515,710)"/>
<path d="M0 0 C6.75 -0.125 6.75 -0.125 9 1 C9.125 3.375 9.125 3.375 9 6 C7 8 7 8 3.375 8.125 C2.26125 8.08375 1.1475 8.0425 0 8 C0 5.36 0 2.72 0 0 Z " fill="#EAE7DC" transform="translate(613,712)"/>
<path d="M0 0 C3.375 -0.125 3.375 -0.125 7 0 C7.66 0.66 8.32 1.32 9 2 C8.75 4.5625 8.75 4.5625 8 7 C5.29120665 8.35439668 2.99066732 8.06501451 0 8 C0 5.36 0 2.72 0 0 Z " fill="#F0EDE6" transform="translate(591,712)"/>
<path d="M0 0 C3 1 3 1 4.6875 3.875 C6 7 6 7 6 10 C5.01 9.67 4.02 9.34 3 9 C2.67 8.34 2.34 7.68 2 7 C-0.35599235 6.53248212 -0.35599235 6.53248212 -3.0625 6.375 C-3.98160156 6.30023437 -4.90070312 6.22546875 -5.84765625 6.1484375 C-6.55792969 6.09945312 -7.26820313 6.05046875 -8 6 C-8.33 7.32 -8.66 8.64 -9 10 C-9.99 9.67 -10.98 9.34 -12 9 C-8.14376321 4.17970402 -8.14376321 4.17970402 -4.88671875 3.66796875 C-2.92143786 3.6854224 -0.95833873 3.83403909 1 4 C0.67 2.68 0.34 1.36 0 0 Z " fill="#4E504D" transform="translate(574,717)"/>
<path d="M0 0 C1.32 0.66 2.64 1.32 4 2 C3.6875 5.375 3.6875 5.375 3 9 C-0.08888522 11.05925681 -0.70935927 11.2390374 -4.1875 11.125 C-6.0746875 11.063125 -6.0746875 11.063125 -8 11 C-8 10.67 -8 10.34 -8 10 C-5.69 10 -3.38 10 -1 10 C-0.835 8.72125 -0.67 7.4425 -0.5 6.125 C-0.4071875 5.40570312 -0.314375 4.68640625 -0.21875 3.9453125 C0.0372485 1.99501656 0.0372485 1.99501656 0 0 Z " fill="#636360" transform="translate(621,711)"/>
<path d="M0 0 C6.8359375 -0.1953125 6.8359375 -0.1953125 9 0 C9.66 0.66 10.32 1.32 11 2 C10.34 2.66 9.68 3.32 9 4 C5.375 3.625 5.375 3.625 2 3 C2 5.64 2 8.28 2 11 C1.67 11 1.34 11 1 11 C0.67 7.37 0.34 3.74 0 0 Z " fill="#6F6E6C" transform="translate(611,709)"/>
<path d="M0 0 C1.60875 -0.061875 3.2175 -0.12375 4.875 -0.1875 C5.77992188 -0.22230469 6.68484375 -0.25710938 7.6171875 -0.29296875 C8.79667969 -0.14794922 8.79667969 -0.14794922 10 0 C10.66 0.99 11.32 1.98 12 3 C8.21293268 3 4.73486879 2.5745952 1 2 C1 4.64 1 7.28 1 10 C0.67 10 0.34 10 0 10 C0 6.7 0 3.4 0 0 Z " fill="#626160" transform="translate(590,710)"/>
<path d="M0 0 C2.15377564 2.62198774 3.40072174 4.64404172 4 8 C1.69 8 -0.62 8 -3 8 C-1.125 1.125 -1.125 1.125 0 0 Z " fill="#DFDBD2" transform="translate(571,713)"/>
<path d="M0 0 C4.29 0 8.58 0 13 0 C13 0.66 13 1.32 13 2 C12.22914063 2.04898438 11.45828125 2.09796875 10.6640625 2.1484375 C9.66117187 2.22320313 8.65828125 2.29796875 7.625 2.375 C6.62726563 2.44460938 5.62953125 2.51421875 4.6015625 2.5859375 C1.84491121 2.76363964 1.84491121 2.76363964 0 5 C0 3.35 0 1.7 0 0 Z " fill="#565453" transform="translate(425,710)"/>
<path d="M0 0 C0.33 0.66 0.66 1.32 1 2 C1.66 2.33 2.32 2.66 3 3 C1.7934375 4.175625 1.7934375 4.175625 0.5625 5.375 C-1.98690417 7.71982856 -1.98690417 7.71982856 -3 10 C-3.99 10 -4.98 10 -6 10 C-4.6302836 6.00499382 -2.74277578 3.19990508 0 0 Z " fill="#696964" transform="translate(451,718)"/>
<path d="M0 0 C0.99 0 1.98 0 3 0 C6 5.75 6 5.75 6 8 C5.01 8 4.02 8 3 8 C2.67 6.35 2.34 4.7 2 3 C1.34 3 0.68 3 0 3 C0 2.01 0 1.02 0 0 Z " fill="#565756" transform="translate(570,709)"/>
<path d="M0 0 C0.99 0 1.98 0 3 0 C1.70700306 2.88437779 0.34058637 4.87219421 -2 7 C-2.66 6.34 -3.32 5.68 -4 5 C-2.1875 2.5 -2.1875 2.5 0 0 Z " fill="#6D6C67" transform="translate(458,709)"/>
<path d="M0 0 C5.625 -0.25 5.625 -0.25 9 2 C9 2.66 9 3.32 9 4 C6.36 3.67 3.72 3.34 1 3 C0.67 2.01 0.34 1.02 0 0 Z " fill="#747371" transform="translate(533,709)"/>
<path d="M0 0 C3.41158256 1.13719419 4.11854601 2.04342944 6 5 C6 5.66 6 6.32 6 7 C5.01 7 4.02 7 3 7 C0.64276511 4.46815512 0 3.52809907 0 0 Z " fill="#61635C" transform="translate(455,721)"/>
<path d="M0 0 C1.53445094 3.06890187 0.54984289 5.70094266 0 9 C-0.66 9 -1.32 9 -2 9 C-2.6875 6.1875 -2.6875 6.1875 -3 3 C-1.5625 1.125 -1.5625 1.125 0 0 Z " fill="#636562" transform="translate(486,430)"/>
<path d="M0 0 C0.66 0.33 1.32 0.66 2 1 C-1.75 6.875 -1.75 6.875 -4 8 C-3.40138258 5.64828869 -2.73075648 3.3140622 -2 1 C-1.34 0.67 -0.68 0.34 0 0 Z " fill="#565956" transform="translate(367,658)"/>
<path d="M0 0 C0.33 0 0.66 0 1 0 C1.33 1.98 1.66 3.96 2 6 C-1.47823115 7.15941038 -3.45895578 6.70820884 -7 6 C-7 5.67 -7 5.34 -7 5 C-5.02 4.67 -3.04 4.34 -1 4 C-0.67 2.68 -0.34 1.36 0 0 Z " fill="#747572" transform="translate(541,720)"/>
<path d="M0 0 C2 2 2 2 2.125 4.625 C2.08375 5.40875 2.0425 6.1925 2 7 C1.01 7.33 0.02 7.66 -1 8 C-0.67 5.36 -0.34 2.72 0 0 Z " fill="#E4D7CB" transform="translate(501,434)"/>
</svg>
